<svg id="Layer_2" data-name="Layer 2" xmlns="http://www.w3.org/2000/svg" viewBox="0 0 600 600"><defs><style>.cls-1{fill:#f77710;}.cls-2{fill:#fff;}</style></defs><title>homepageArtboard 1</title><rect class="cls-1" width="600" height="600"/><path d="M356.26,169c-18-30.89-47.42-30.89-65.4,0L153.49,405c-18,30.9-3.45,56.18,32.3,56.18H461.33c35.75,0,50.29-25.28,32.3-56.18Z"/><path d="M337.14,154.88c-18-30.9-47.41-30.9-65.4,0l-137.37,236c-18,30.9-3.45,56.18,32.3,56.18H442.21c35.75,0,50.29-25.28,32.3-56.18Z"/><path class="cls-2" d="M330.61,159.41c-14.38-24.72-37.93-24.72-52.32,0L141.41,394.55c-14.39,24.72-2.76,44.94,25.84,44.94H441.66c28.6,0,40.22-20.22,25.84-44.94Z"/><path d="M290.18,263h31l-2.52,21a114.55,114.55,0,0,1-3.5,17.38c3.55-1.76,5.88-3,7-3.61,3.92-2.14,6.91-3.66,9-4.59L350.61,284l9.67,29.34-21.59,4.45a127.06,127.06,0,0,1-17.53,1.53,104.51,104.51,0,0,1,12.48,11.13l14.59,15.71L323,364.94l-10.38-18.78q-2.25-4-7.29-15.71-5.46,12.8-7.29,15.71l-10.52,18.78-25.94-18.78,15.71-15.71a111.6,111.6,0,0,1,12.9-11.13q-6.45-.56-17-2.5l-21.73-3.48L261.57,284l19.49,8.76q3.09,1.39,15.29,8.62Q293.68,289.69,293,284Z"/></svg>