<?xml version="1.0" encoding="utf-8"?>
<!-- Generator: Adobe Illustrator 22.0.1, SVG Export Plug-In . SVG Version: 6.00 Build 0)  -->
<svg version="1.1" xmlns="http://www.w3.org/2000/svg" xmlns:xlink="http://www.w3.org/1999/xlink" x="0px" y="0px"
	 viewBox="0 0 600 600" style="enable-background:new 0 0 600 600;" xml:space="preserve">
<style type="text/css">
	.st0{display:none;}
	.st1{display:inline;fill:#F77710;}
	.st2{display:inline;}
	.st3{display:inline;fill:#FFFFFF;}
	.st4{fill:#F77710;}
	.st5{fill:#FFFFFF;}
	.st6{font-family:'Arial-Black';}
	.st7{font-size:259px;}
</style>
<g id="Layer_1" class="st0">
	<title>Lab-Plugin-DoubleClick100</title>
	<rect class="st1" width="600" height="600"/>
	<path class="st2" d="M499.1,182.3c-5.5-13.2-16-23.7-29.2-29.2c-6.6-2.7-13.7-4.1-20.8-4.1H168.4c-7.1,0-14.2,1.4-20.8,4.2
		c-13.2,5.5-23.7,16-29.2,29.2c-2.8,6.6-4.2,13.7-4.2,20.8v213.2c0,7.2,1.4,14.2,4.2,20.8c5.5,13.2,16,23.6,29.2,29.2
		c6.6,2.8,13.7,4.2,20.8,4.2h280.7c7.2,0,14.3-1.4,20.9-4.2c13.2-5.5,23.7-16,29.2-29.2c2.8-6.6,4.2-13.7,4.2-20.8V203.1
		C503.3,196,501.9,188.9,499.1,182.3z"/>
	<path class="st3" d="M156.2,147.6h280.7c25.3,0,45.8,20.5,45.8,45.8v213.2c0,25.3-20.5,45.8-45.8,45.8H156.2
		c-25.3,0-45.8-20.5-45.8-45.8V193.4C110.4,168.1,130.9,147.6,156.2,147.6z"/>
	<path class="st2" d="M486.9,172.6c-5.5-13.2-16-23.7-29.2-29.2c-6.6-2.8-13.7-4.2-20.8-4.2H156.2c-7.1,0-14.2,1.4-20.8,4.2
		c-13.2,5.5-23.6,16-29.2,29.2c-2.8,6.6-4.2,13.7-4.2,20.8v213.2c0,7.1,1.4,14.2,4.2,20.8c5.5,13.2,16,23.6,29.2,29.2
		c6.6,2.8,13.7,4.2,20.8,4.2h280.7c7.2,0,14.2-1.4,20.8-4.2c13.2-5.5,23.6-16,29.2-29.2c2.8-6.6,4.2-13.7,4.2-20.8V193.4
		C491.1,186.3,489.6,179.2,486.9,172.6z M482.7,406.6c0,25.3-20.5,45.8-45.8,45.8H156.2c-25.3,0-45.8-20.5-45.8-45.8V226h372.4
		V406.6z M482.7,217.7H110.4v-24.3c0-25.3,20.5-45.8,45.8-45.8h280.7c25.3,0,45.8,20.5,45.8,45.8L482.7,217.7z"/>
	<path class="st2" d="M446.9,195l-12.7-12.7l12.3-12.3c1.5-1.7,1.4-4.3-0.3-5.9c-1.6-1.4-4-1.4-5.6,0l-12.3,12.3L416,164.1
		c-1.7-1.5-4.3-1.4-5.9,0.3c-1.4,1.6-1.4,4,0,5.6l12.3,12.3L409.8,195c-1.7,1.5-1.8,4.2-0.3,5.9c1.5,1.7,4.2,1.8,5.9,0.3
		c0.1-0.1,0.2-0.2,0.3-0.3l12.7-12.7l12.6,12.7c1.7,1.5,4.3,1.4,5.9-0.3C448.3,199,448.3,196.6,446.9,195L446.9,195z"/>
</g>
<g id="Layer_2">
	<rect x="0" class="st4" width="600" height="600"/>
	<g>
		<path d="M356.3,169c-18-30.9-47.4-30.9-65.4,0L153.5,405c-18,30.9-3.5,56.2,32.3,56.2h275.5c35.8,0,50.3-25.3,32.3-56.2L356.3,169
			z"/>
	</g>
	<g>
		<path d="M337.1,154.9c-18-30.9-47.4-30.9-65.4,0l-137.4,236c-18,30.9-3.5,56.2,32.3,56.2h275.5c35.8,0,50.3-25.3,32.3-56.2
			L337.1,154.9z"/>
	</g>
	<g>
		<path class="st5" d="M330.6,159.4c-14.4-24.7-37.9-24.7-52.3,0L141.4,394.6c-14.4,24.7-2.8,44.9,25.8,44.9h274.4
			c28.6,0,40.2-20.2,25.8-44.9L330.6,159.4z"/>
	</g>
	<text transform="matrix(1.0083 0 0 1 231.8394 465.1772)" class="st6 st7">*</text>
</g>
</svg>
